HIERARCHY
ROOT Hips
{
	OFFSET -0.001795 -0.223333 0.028219
	CHANNELS 6 Xposition Yposition Zposition Zrotation Yrotation Xrotation 
	JOINT LeftUpLeg
	{
		OFFSET 0.069520 -0.091406 -0.006815
		CHANNELS 3 Zrotation Yrotation Xrotation
		JOINT LeftLeg
		{
			OFFSET 0.034277 -0.375199 -0.004496
			CHANNELS 3 Zrotation Yrotation Xrotation
			JOINT LeftFoot
			{
				OFFSET -0.013596 -0.397961 -0.043693
				CHANNELS 3 Zrotation Yrotation Xrotation
				JOINT LeftToe
				{
					OFFSET 0.026358 -0.055791 0.119288
					CHANNELS 3 Zrotation Yrotation Xrotation
					End Site
					{
						OFFSET 0.000000 0.000000 0.000000
					}
				}
			}
		}
	}
	JOINT RightUpLeg
	{
		OFFSET -0.067670 -0.090522 -0.004320
		CHANNELS 3 Zrotation Yrotation Xrotation
		JOINT RightLeg
		{
			OFFSET -0.038290 -0.382569 -0.008850
			CHANNELS 3 Zrotation Yrotation Xrotation
			JOINT RightFoot
			{
				OFFSET 0.015774 -0.398415 -0.042312
				CHANNELS 3 Zrotation Yrotation Xrotation
				JOINT RightToe
				{
					OFFSET -0.025372 -0.048144 0.123348
					CHANNELS 3 Zrotation Yrotation Xrotation
					End Site
					{
						OFFSET 0.000000 0.000000 0.000000
					}
				}
			}
		}
	}
	JOINT Spine
	{
		OFFSET -0.002533 0.108963 -0.026696
		CHANNELS 3 Zrotation Yrotation Xrotation
		JOINT Spine1
		{
			OFFSET 0.005487 0.135180 0.001092
			CHANNELS 3 Zrotation Yrotation Xrotation
			JOINT Spine2
			{
				OFFSET 0.001457 0.052922 0.025425
				CHANNELS 3 Zrotation Yrotation Xrotation
				JOINT Neck
				{
					OFFSET -0.002778 0.213870 -0.042857
					CHANNELS 3 Zrotation Yrotation Xrotation
					JOINT Head
					{
						OFFSET 0.005152 0.064970 0.051349
						CHANNELS 3 Zrotation Yrotation Xrotation
						End Site
						{
							OFFSET 0.000000 0.000000 0.000000
						}
					}
				}
				JOINT LeftShoulder
				{
					OFFSET 0.078845 0.121749 -0.034090
					CHANNELS 3 Zrotation Yrotation Xrotation
					JOINT LeftArm
					{
						OFFSET 0.090977 0.030469 -0.008868
						CHANNELS 3 Zrotation Yrotation Xrotation
						JOINT LeftForeArm
						{
							OFFSET 0.259612 -0.012772 -0.027456
							CHANNELS 3 Zrotation Yrotation Xrotation
							JOINT LeftHand
							{
								OFFSET 0.249234 0.008986 -0.001171
								CHANNELS 3 Zrotation Yrotation Xrotation
								End Site
								{
									OFFSET 0.000000 0.000000 0.000000
								}
							}
						}
					}
				}
				JOINT RightShoulder
				{
					OFFSET -0.081759 0.118833 -0.038615
					CHANNELS 3 Zrotation Yrotation Xrotation
					JOINT RightArm
					{
						OFFSET -0.096012 0.032551 -0.009143
						CHANNELS 3 Zrotation Yrotation Xrotation
						JOINT RightForeArm
						{
							OFFSET -0.253742 -0.013329 -0.021401
							CHANNELS 3 Zrotation Yrotation Xrotation
							JOINT RightHand
							{
								OFFSET -0.255298 0.007772 -0.005559
								CHANNELS 3 Zrotation Yrotation Xrotation
								End Site
								{
									OFFSET 0.000000 0.000000 0.000000
								}
							}
						}
					}
				}
			}
		}
	}
}
MOTION
Frames: 13
Frame Time: 0.050000
0.000000 0.946506 0.000000 -4.131474 -15.243555 9.562193 3.995242 -0.508080 -10.717071 1.549240 -0.087866 -2.605526 -7.897427 -12.143872 8.499066 0.000000 0.000000 0.000000 -1.233713 0.720618 -7.323325 3.353280 -0.237038 -3.422172 -7.310176 -19.716636 13.258570 0.000000 0.000000 0.000000 -6.492672 0.812533 13.418879 -7.248025 4.191323 6.425481 -3.318281 0.453828 0.964177 -2.710985 2.213841 -17.169669 0.000000 0.000000 0.000000 -33.333730 -25.035461 17.526020 -42.357764 -25.677112 3.320191 6.670430 -34.232157 -0.401424 0.000000 0.000000 0.000000 13.732032 29.253199 12.259253 32.393177 2.356663 -1.845766 8.685313 56.851535 5.681042 0.000000 0.000000 0.000000 
-0.000693 0.946076 -0.000745 -3.582777 -15.903579 9.740052 4.442881 -0.432637 -9.796046 -0.238618 0.183072 -4.762621 -7.854519 -11.658671 9.460772 0.000000 0.000000 0.000000 -0.828290 0.785482 -8.000008 1.413733 -0.162904 -3.109095 -6.934460 -19.169149 13.061083 0.000000 0.000000 0.000000 -7.253629 1.000357 13.759414 -6.119185 3.412209 4.925838 -4.715965 0.175767 1.953058 -3.307551 2.538722 -20.229739 0.000000 0.000000 0.000000 -32.370186 -23.437260 16.327506 -42.229348 -24.599603 2.790494 4.550175 -43.177747 0.486058 0.000000 0.000000 0.000000 12.140534 28.675191 11.645488 30.642148 2.122948 -1.817087 15.052643 57.033759 8.955201 0.000000 0.000000 0.000000 
-0.000983 0.947136 -0.001180 -3.581159 -14.016252 9.467956 5.022003 -0.426318 -10.431146 -1.066493 0.229185 -3.734663 -8.858509 -12.970727 9.979004 0.000000 0.000000 0.000000 -0.022318 0.744951 -7.640762 1.154651 -0.150462 -2.609242 -8.608396 -21.671701 13.016237 0.000000 0.000000 0.000000 -5.692044 0.683480 14.361386 -6.777657 3.757315 5.272074 -5.245654 0.036520 0.493619 -2.065136 1.845413 -14.327814 0.000000 0.000000 0.000000 -34.970906 -25.142849 17.814970 -39.559779 -23.666375 2.327961 3.356134 -44.646685 0.857219 0.000000 0.000000 0.000000 11.765447 28.015610 11.462149 31.786639 -2.338874 -2.873900 19.040574 57.998803 11.456347 0.000000 0.000000 0.000000 
-0.001284 0.946624 -0.001661 -3.625829 -13.928474 9.293256 5.371354 -0.392548 -10.253620 -1.555121 0.280051 -3.762185 -8.904393 -13.067758 9.920672 0.000000 0.000000 0.000000 -0.170825 0.732361 -7.523537 1.757450 -0.184734 -2.958343 -9.195663 -22.618568 13.720343 0.000000 0.000000 0.000000 -5.365886 0.600794 13.924838 -6.997389 3.893392 5.463069 -5.911012 -0.746730 0.382799 -2.132617 1.834594 -13.948299 0.000000 0.000000 0.000000 -34.070802 -25.154986 17.779563 -40.922101 -24.126120 2.633264 5.233829 -46.952328 0.153391 0.000000 0.000000 0.000000 12.648356 28.560547 11.727288 30.039280 -5.049796 -3.203439 21.942019 59.328951 13.345763 0.000000 0.000000 0.000000 
-0.001509 0.946754 -0.001984 -3.475095 -14.109670 8.420717 5.582541 -0.350990 -9.968259 -2.224792 0.333283 -2.615540 -8.819686 -13.062648 9.638541 0.000000 0.000000 0.000000 -0.056848 0.693402 -7.169682 1.174689 -0.137728 -2.047015 -9.038490 -22.359023 13.497128 0.000000 0.000000 0.000000 -5.053217 0.550132 14.334702 -7.527570 4.230830 5.743285 -6.075776 -1.208165 0.083720 -2.432011 1.973890 -13.291834 0.000000 0.000000 0.000000 -32.956459 -25.559914 17.936584 -40.558284 -24.006718 2.553512 8.970596 -50.092067 -1.513574 0.000000 0.000000 0.000000 12.326310 27.155033 10.816718 29.969823 -6.304442 -3.422442 29.149522 61.631247 18.172716 0.000000 0.000000 0.000000 
-0.001564 0.946721 -0.002269 -3.268604 -14.188513 8.290928 5.697207 -0.339275 -9.906186 -2.811692 0.402009 -2.588079 -8.843606 -13.015640 9.804037 0.000000 0.000000 0.000000 -0.539129 0.683441 -7.046888 1.763362 -0.156794 -1.532667 -8.808207 -21.877071 12.177367 0.000000 0.000000 0.000000 -4.722569 0.482320 14.084392 -7.445091 4.072909 4.777033 -6.437064 -1.452860 0.589346 -2.719775 2.113178 -11.977190 0.000000 0.000000 0.000000 -32.416813 -26.090291 18.323820 -39.409802 -23.434366 2.191364 11.994189 -51.281526 -2.974805 0.000000 0.000000 0.000000 11.960312 26.846810 10.545154 29.895115 -7.947604 -3.761293 35.099485 63.769054 22.639695 0.000000 0.000000 0.000000 
-0.001627 0.946475 -0.002526 -3.195713 -14.946357 7.642321 5.804473 -0.293270 -9.311899 -3.204800 0.452847 -2.210995 -8.477287 -12.595036 9.470669 0.000000 0.000000 0.000000 -0.356237 0.688850 -7.125509 1.290023 -0.099309 -0.468326 -8.723537 -21.743783 11.897944 0.000000 0.000000 0.000000 -4.670690 0.472116 13.916756 -7.388605 4.114463 5.150274 -6.552651 -1.869964 0.180761 -3.079664 2.291827 -11.382159 0.000000 0.000000 0.000000 -32.783779 -25.290765 18.099671 -37.911131 -22.989497 1.823099 14.242366 -51.263959 -4.018393 0.000000 0.000000 0.000000 11.369418 25.831709 9.796711 29.697187 -8.195463 -3.734563 42.284769 65.859743 28.203874 0.000000 0.000000 0.000000 
-0.001872 0.946447 -0.002890 -2.948146 -15.697500 7.321862 5.571248 -0.290784 -8.916198 -3.283897 0.467938 -2.231156 -8.137721 -12.101431 9.377014 0.000000 0.000000 0.000000 -0.487162 0.706223 -7.296353 1.129442 -0.069223 0.101464 -8.648296 -21.620032 11.606010 0.000000 0.000000 0.000000 -4.772913 0.489692 13.625844 -6.869499 3.856262 5.177528 -6.374832 -2.494495 -0.121332 -3.322174 2.387666 -10.263017 0.000000 0.000000 0.000000 -32.701587 -25.131482 18.389649 -36.830683 -22.577568 1.501634 16.421805 -51.013573 -4.983388 0.000000 0.000000 0.000000 11.638343 25.519087 9.423962 29.155809 -7.956205 -3.513153 50.150714 68.219753 34.878807 0.000000 0.000000 0.000000 
-0.002411 0.946162 -0.003465 -2.883187 -16.973870 7.052053 5.934320 -0.219117 -8.534868 -4.073419 0.582050 -2.093662 -7.562880 -11.278277 9.171357 0.000000 0.000000 0.000000 -0.429994 0.753679 -7.760613 1.128655 -0.034124 1.017357 -8.598880 -21.533747 11.141869 0.000000 0.000000 0.000000 -5.065255 0.533848 13.021468 -6.742661 3.787179 4.875098 -5.942100 -2.578023 -0.092812 -3.386273 2.373008 -10.422750 0.000000 0.000000 0.000000 -33.242659 -24.829287 18.691140 -35.046988 -22.177530 1.114692 17.208555 -49.480302 -5.192116 0.000000 0.000000 0.000000 12.286054 25.031193 9.028372 29.368700 -7.169767 -3.316837 55.541008 70.597812 40.304687 0.000000 0.000000 0.000000 
-0.002957 0.945472 -0.004198 -2.838051 -18.161962 6.806483 5.942568 -0.183049 -8.135080 -4.191389 0.609727 -2.064390 -6.963112 -10.499371 8.751508 0.000000 0.000000 0.000000 -0.217452 0.757573 -7.820808 0.805240 -0.001650 1.164710 -8.418150 -21.224658 10.786673 0.000000 0.000000 0.000000 -5.116316 0.533246 12.458196 -6.671870 3.769603 4.776956 -5.478813 -3.377415 0.126926 -4.158095 2.765339 -10.784626 0.000000 0.000000 0.000000 -33.368185 -24.689416 19.320258 -33.166918 -22.668005 0.902895 17.017988 -47.998194 -4.932000 0.000000 0.000000 0.000000 13.047841 25.528282 8.943318 30.220723 -6.315340 -3.147461 59.351219 72.827120 44.487495 0.000000 0.000000 0.000000 
-0.003472 0.945067 -0.005011 -2.827641 -19.152163 6.515682 6.035276 -0.146439 -7.994672 -4.374042 0.650528 -1.532679 -6.460933 -9.852191 8.334030 0.000000 0.000000 0.000000 -0.225473 0.811711 -8.313355 0.843966 0.024120 1.811768 -8.432481 -21.354631 11.193490 0.000000 0.000000 0.000000 -5.302774 0.562505 12.172238 -6.117311 3.449601 4.417311 -5.060275 -3.086836 0.523025 -4.309264 2.818331 -11.326904 0.000000 0.000000 0.000000 -33.266659 -25.154640 19.794553 -31.901194 -22.679068 0.755265 15.679755 -47.375566 -4.343257 0.000000 0.000000 0.000000 14.630744 25.619744 8.971498 31.183682 -5.161669 -2.980876 60.774967 75.576574 47.791886 0.000000 0.000000 0.000000 
-0.003582 0.944597 -0.005736 -2.926288 -20.065369 6.364019 5.949675 -0.128029 -7.702993 -4.089284 0.618183 -1.490897 -5.971260 -9.212910 7.922215 0.000000 0.000000 0.000000 -0.032554 0.830351 -8.482955 0.789372 0.035967 1.930736 -8.407717 -21.365962 11.323249 0.000000 0.000000 0.000000 -5.175628 0.526467 11.634167 -5.985023 3.457945 4.867081 -4.239094 -3.651602 0.509141 -5.054147 3.188755 -11.953347 0.000000 0.000000 0.000000 -33.127576 -25.104280 20.252878 -30.838877 -23.865682 0.825012 14.777270 -46.352942 -3.852442 0.000000 0.000000 0.000000 16.010196 26.608765 9.205420 32.820323 -4.023726 -2.773829 51.009110 78.650134 41.357817 0.000000 0.000000 0.000000 
-0.003686 0.944517 -0.006255 -2.688782 -20.379361 6.022744 5.346800 -0.177083 -7.577453 -3.457066 0.528997 -1.170477 -5.766236 -8.964349 7.684999 0.000000 0.000000 0.000000 -0.269973 0.841783 -8.588286 0.905515 0.047234 2.384790 -8.555323 -21.601544 11.303508 0.000000 0.000000 0.000000 -5.333824 0.527748 11.162042 -5.650429 3.313869 5.104148 -3.265998 -3.609793 0.649725 -5.596287 3.511973 -12.022658 0.000000 0.000000 0.000000 -33.766264 -25.335984 20.806992 -29.886229 -24.073322 0.716665 13.071099 -46.705050 -3.207024 0.000000 0.000000 0.000000 17.799945 26.820318 9.278147 33.994728 -3.621741 -2.723871 33.395101 80.121385 27.120478 0.000000 0.000000 0.000000 
